<?xml version="1.0" standalone="no"?>
<!DOCTYPE svg PUBLIC "-//W3C//DTD SVG 20010904//EN"
 "http://www.w3.org/TR/2001/REC-SVG-20010904/DTD/svg10.dtd">
<svg version="1.0" xmlns="http://www.w3.org/2000/svg"
 width="1024.000000pt" height="1024.000000pt" viewBox="0 0 1024.000000 1024.000000"
 preserveAspectRatio="xMidYMid meet">
<metadata>
Created by potrace 1.11, written by Peter Selinger 2001-2013
</metadata>
<g transform="translate(0.000000,1024.000000) scale(0.100000,-0.100000)"
fill="#000000" stroke="none">
<path d="M0 5120 l0 -5120 5120 0 5120 0 0 5120 0 5120 -5120 0 -5120 0 0
-5120z m9600 0 l0 -4480 -4480 0 -4480 0 0 4480 0 4480 4480 0 4480 0 0 -4480z"/>
<path d="M1280 5120 l0 -3840 3840 0 3840 0 0 3840 0 3840 -3840 0 -3840 0 0
-3840z m2190 1253 c514 -127 877 -496 986 -1003 26 -119 26 -381 0 -500 -109
-507 -472 -876 -986 -1003 -82 -20 -115 -21 -817 -24 l-733 -4 0 1281 0 1281
733 -4 c702 -3 735 -4 817 -24z m2930 -800 l0 -828 640 640 640 640 0 187 0
188 320 0 320 0 0 -322 0 -323 -957 -957 -958 -958 -322 0 -323 0 0 1280 0
1280 320 0 320 0 0 -827z"/>
<path d="M2560 5120 l0 -640 353 0 c403 0 443 5 577 71 209 104 350 332 350
569 0 237 -141 465 -350 569 -134 66 -174 71 -577 71 l-353 0 0 -640z"/>
</g>
</svg>
